<svg xmlns="http://www.w3.org/2000/svg" xmlns:xlink="http://www.w3.org/1999/xlink" width="500" zoomAndPan="magnify" viewBox="0 0 375 374.999991" height="500" preserveAspectRatio="xMidYMid meet" version="1.0"><defs><g/><clipPath id="0625b68e99"><path d="M 123.179688 164.199219 L 164.429688 164.199219 L 164.429688 206.949219 L 123.179688 206.949219 Z M 123.179688 164.199219 " clip-rule="nonzero"/></clipPath></defs><g clip-path="url(#0625b68e99)"><path fill="#004aad" d="M 148.242188 203.871094 C 142.59375 206.335938 135.835938 203.75 133.488281 197.6875 C 132.082031 194.0625 132.382812 189.308594 135.164062 185.746094 L 152.226562 185.746094 C 156.734375 191.296875 155.261719 200.8125 148.242188 203.871094 Z M 159.238281 167.34375 L 151.527344 167.34375 L 151.527344 172.570312 C 149.960938 170.945312 145.742188 166.585938 143.734375 164.511719 C 143.347656 164.910156 127.875 180.914062 123.203125 185.746094 L 125.761719 185.746094 C 123.695312 190.496094 123.777344 196.175781 125.679688 200.703125 C 132.070312 215.933594 155.066406 216.261719 161.761719 200.597656 C 163.765625 195.910156 163.675781 190.246094 161.78125 185.746094 L 164.261719 185.746094 L 159.238281 180.546875 L 159.238281 167.34375 " fill-opacity="1" fill-rule="nonzero"/></g><g fill="#0a4b5e" fill-opacity="1"><g transform="translate(84.83288, 204.807074)"><g><path d="M 20.359375 -32.359375 C 22.429688 -32.359375 24.363281 -31.921875 26.15625 -31.046875 C 27.957031 -30.179688 29.515625 -29 30.828125 -27.5 C 32.140625 -26 33.164062 -24.242188 33.90625 -22.234375 C 34.644531 -20.222656 35.015625 -18.078125 35.015625 -15.796875 L 35.015625 0 L 26.453125 0 L 26.453125 -5.765625 C 26.453125 -7.378906 26.460938 -9.039062 26.484375 -10.75 C 26.503906 -12.46875 26.515625 -13.9375 26.515625 -15.15625 C 26.515625 -16.34375 26.320312 -17.503906 25.9375 -18.640625 C 25.5625 -19.785156 25.035156 -20.789062 24.359375 -21.65625 C 23.679688 -22.53125 22.882812 -23.226562 21.96875 -23.75 C 21.0625 -24.28125 20.101562 -24.546875 19.09375 -24.546875 C 18.125 -24.546875 17.191406 -24.363281 16.296875 -24 C 15.410156 -23.644531 14.628906 -23.117188 13.953125 -22.421875 C 13.273438 -21.722656 12.734375 -20.84375 12.328125 -19.78125 C 11.929688 -18.726562 11.734375 -17.484375 11.734375 -16.046875 L 11.734375 0 L 2.921875 0 L 2.921875 -46.3125 L 11.734375 -46.3125 L 11.734375 -29.046875 C 12.835938 -30.109375 14.097656 -30.925781 15.515625 -31.5 C 16.929688 -32.070312 18.546875 -32.359375 20.359375 -32.359375 Z M 20.359375 -32.359375 "/></g></g></g><g fill="#004369" fill-opacity="1"><g transform="translate(164.96888, 206.091783)"><g><path d="M 37.875 -31.46875 C 39.007812 -31.46875 40.234375 -31.273438 41.546875 -30.890625 C 42.859375 -30.515625 44.070312 -29.835938 45.1875 -28.859375 C 46.3125 -27.890625 47.234375 -26.554688 47.953125 -24.859375 C 48.671875 -23.171875 49.03125 -21.015625 49.03125 -18.390625 L 49.03125 0 L 40.28125 0 L 40.28125 -16.8125 C 40.28125 -18.082031 40.140625 -19.160156 39.859375 -20.046875 C 39.585938 -20.929688 39.21875 -21.648438 38.75 -22.203125 C 38.289062 -22.753906 37.753906 -23.144531 37.140625 -23.375 C 36.523438 -23.601562 35.898438 -23.71875 35.265625 -23.71875 C 34.679688 -23.71875 34.09375 -23.613281 33.5 -23.40625 C 32.90625 -23.195312 32.375 -22.835938 31.90625 -22.328125 C 31.445312 -21.816406 31.078125 -21.117188 30.796875 -20.234375 C 30.523438 -19.347656 30.390625 -18.226562 30.390625 -16.875 L 30.390625 0 L 21.625 0 L 21.625 -16.8125 C 21.625 -19.394531 21.179688 -21.191406 20.296875 -22.203125 C 19.410156 -23.210938 18.125 -23.71875 16.4375 -23.71875 C 15.207031 -23.71875 14.101562 -23.144531 13.125 -22 C 12.15625 -20.863281 11.671875 -19.09375 11.671875 -16.6875 L 11.671875 0 L 2.921875 0 L 2.921875 -31.46875 L 10.40625 -31.46875 L 11.671875 -28.546875 C 12.640625 -29.472656 13.769531 -30.191406 15.0625 -30.703125 C 16.351562 -31.210938 17.738281 -31.46875 19.21875 -31.46875 C 19.976562 -31.46875 20.78125 -31.390625 21.625 -31.234375 C 22.476562 -31.085938 23.304688 -30.820312 24.109375 -30.4375 C 24.910156 -30.0625 25.679688 -29.566406 26.421875 -28.953125 C 27.160156 -28.347656 27.828125 -27.578125 28.421875 -26.640625 C 28.929688 -27.441406 29.546875 -28.148438 30.265625 -28.765625 C 30.984375 -29.378906 31.765625 -29.882812 32.609375 -30.28125 C 33.453125 -30.6875 34.328125 -30.984375 35.234375 -31.171875 C 36.148438 -31.367188 37.03125 -31.46875 37.875 -31.46875 Z M 37.875 -31.46875 "/></g></g></g><g fill="#004369" fill-opacity="1"><g transform="translate(213.875907, 206.091783)"><g><path d="M 18.390625 -32.359375 C 20.765625 -32.359375 22.921875 -31.878906 24.859375 -30.921875 C 26.804688 -29.972656 28.476562 -28.726562 29.875 -27.1875 C 31.269531 -25.644531 32.347656 -23.867188 33.109375 -21.859375 C 33.867188 -19.847656 34.25 -17.785156 34.25 -15.671875 C 34.25 -14.398438 34.082031 -13.046875 33.75 -11.609375 L 11.296875 -11.609375 C 12.140625 -10.171875 13.34375 -8.953125 14.90625 -7.953125 C 16.46875 -6.960938 18.160156 -6.46875 19.984375 -6.46875 C 21.796875 -6.46875 23.390625 -6.613281 24.765625 -6.90625 C 26.140625 -7.207031 27.441406 -7.59375 28.671875 -8.0625 L 31.59375 -2.671875 C 30.03125 -1.566406 28.242188 -0.71875 26.234375 -0.125 C 24.222656 0.46875 22.078125 0.765625 19.796875 0.765625 C 17.296875 0.765625 14.96875 0.332031 12.8125 -0.53125 C 10.65625 -1.40625 8.769531 -2.582031 7.15625 -4.0625 C 5.550781 -5.539062 4.285156 -7.296875 3.359375 -9.328125 C 2.429688 -11.359375 1.96875 -13.515625 1.96875 -15.796875 C 1.96875 -18.035156 2.390625 -20.160156 3.234375 -22.171875 C 4.078125 -24.179688 5.25 -25.9375 6.75 -27.4375 C 8.257812 -28.9375 10.003906 -30.128906 11.984375 -31.015625 C 13.972656 -31.910156 16.109375 -32.359375 18.390625 -32.359375 Z M 25.5625 -18.390625 C 25.050781 -20.210938 24.140625 -21.691406 22.828125 -22.828125 C 21.523438 -23.972656 20.046875 -24.546875 18.390625 -24.546875 C 16.703125 -24.546875 15.171875 -23.972656 13.796875 -22.828125 C 12.421875 -21.691406 11.476562 -20.210938 10.96875 -18.390625 Z M 25.5625 -18.390625 "/></g></g></g><g fill="#004369" fill-opacity="1"><g transform="translate(257.132683, 205.873844)"><g><path d="M 5.25 -5.609375 C 5.664062 -5.304688 5.988281 -4.925781 6.21875 -4.46875 C 6.457031 -4.019531 6.578125 -3.53125 6.578125 -3 C 6.578125 -2.5625 6.492188 -2.148438 6.328125 -1.765625 C 6.160156 -1.390625 5.9375 -1.054688 5.65625 -0.765625 C 5.375 -0.472656 5.039062 -0.242188 4.65625 -0.078125 C 4.28125 0.0859375 3.875 0.171875 3.4375 0.171875 C 3.09375 0.171875 2.765625 0.113281 2.453125 0 C 2.148438 -0.101562 1.867188 -0.25 1.609375 -0.4375 C 1.347656 -0.625 1.117188 -0.847656 0.921875 -1.109375 C 0.734375 -1.367188 0.582031 -1.648438 0.46875 -1.953125 L 2.171875 -2.671875 C 2.234375 -2.378906 2.378906 -2.128906 2.609375 -1.921875 C 2.835938 -1.710938 3.097656 -1.609375 3.390625 -1.609375 C 3.566406 -1.609375 3.726562 -1.640625 3.875 -1.703125 C 4.03125 -1.773438 4.164062 -1.875 4.28125 -2 C 4.394531 -2.125 4.484375 -2.269531 4.546875 -2.4375 C 4.617188 -2.601562 4.65625 -2.773438 4.65625 -2.953125 C 4.65625 -3.140625 4.617188 -3.316406 4.546875 -3.484375 C 4.484375 -3.648438 4.394531 -3.796875 4.28125 -3.921875 C 4.164062 -4.046875 4.03125 -4.144531 3.875 -4.21875 C 3.71875 -4.289062 3.539062 -4.328125 3.34375 -4.328125 C 3.101562 -4.328125 2.894531 -4.269531 2.71875 -4.15625 L 1.75 -5.375 L 3.265625 -7.3125 L 0.953125 -7.3125 L 0.953125 -9.078125 L 5.671875 -9.078125 L 5.671875 -8.203125 L 4.1875 -6.046875 C 4.59375 -5.972656 4.945312 -5.828125 5.25 -5.609375 Z M 5.25 -5.609375 "/></g></g></g><g fill="#004369" fill-opacity="1"><g transform="translate(264.177425, 205.873844)"><g><path d="M 4.28125 -9.078125 C 4.9375 -9.078125 5.515625 -8.957031 6.015625 -8.71875 C 6.523438 -8.476562 6.945312 -8.15625 7.28125 -7.75 C 7.625 -7.34375 7.878906 -6.859375 8.046875 -6.296875 C 8.222656 -5.742188 8.3125 -5.15625 8.3125 -4.53125 C 8.3125 -3.90625 8.21875 -3.316406 8.03125 -2.765625 C 7.851562 -2.210938 7.601562 -1.726562 7.28125 -1.3125 C 6.957031 -0.90625 6.570312 -0.582031 6.125 -0.34375 C 5.675781 -0.113281 5.191406 0 4.671875 0 L 0.609375 0 L 0.609375 -9.078125 Z M 4.296875 -1.75 C 4.660156 -1.75 4.972656 -1.820312 5.234375 -1.96875 C 5.492188 -2.125 5.707031 -2.328125 5.875 -2.578125 C 6.050781 -2.835938 6.175781 -3.132812 6.25 -3.46875 C 6.332031 -3.800781 6.375 -4.148438 6.375 -4.515625 C 6.375 -4.890625 6.335938 -5.242188 6.265625 -5.578125 C 6.191406 -5.921875 6.066406 -6.21875 5.890625 -6.46875 C 5.722656 -6.726562 5.503906 -6.929688 5.234375 -7.078125 C 4.972656 -7.234375 4.660156 -7.3125 4.296875 -7.3125 L 2.5625 -7.3125 L 2.5625 -1.75 Z M 4.296875 -1.75 "/></g></g></g></svg>